<svg width="32" height="32" xmlns="http://www.w3.org/2000/svg">

 <g>
  <title>background</title>
  <rect fill="none" id="canvas_background" height="402" width="582" y="-1" x="-1"/>
 </g>
 <g>
  <title>Layer 1</title>
  <path fill="#f2f4f4" id="svg_2" d="m2.3,28.6l-1.6,1.6c-0.3,0.3 -0.3,0.8 0,1.1c0.1,0.1 0.3,0.2 0.5,0.2s0.4,-0.1 0.5,-0.2l1.6,-1.6l6.5,-2.4l-5.1,-5.1l-2.4,6.4z"/>
  <path fill="#f2f4f4" id="svg_3" d="m29.9,7.6l0.9,-0.9c1,-1 1,-2.5 0,-3.5l-2,-2c-0.9,-0.9 -2.5,-0.9 -3.5,0l-6.9,6.9l5.5,5.5l4.9,-4.9l0.6,0.6c0.4,0.4 0.5,0.9 0.5,1.4c-0.1,0.5 -0.4,0.9 -0.8,1.2l-5.5,3c-1.6,0.8 -2.6,2.4 -2.6,4.1c0,0.4 0.3,0.8 0.7,0.8l0,0c0.4,0 0.7,-0.3 0.8,-0.7c0.1,-1.2 0.7,-2.3 1.8,-2.9l5.5,-3c0.9,-0.5 1.4,-1.3 1.6,-2.3c0.1,-1 -0.2,-2 -0.9,-2.7l-0.6,-0.6z"/>
  <rect fill="#f2f4f4" id="svg_4" y="9.5" x="10.4" width="7.8" transform="matrix(0.7071,0.7071,-0.7071,0.7071,16.7343,-4.8828) " height="16.6"/>
 </g>
</svg>