<svg width="128" height="128" xmlns="http://www.w3.org/2000/svg">

 <g>
  <title>background</title>
  <rect fill="none" id="canvas_background" height="402" width="582" y="-1" x="-1"/>
 </g>
 <g>
  <title>Layer 1</title>
  <path fill="#e8eff2" id="svg_3" d="m76.7,30l-25.4,0c-3.3,0 -5.9,-2.7 -5.9,-5.9c0,-2.9 2.1,-5.4 4.9,-5.9c0.3,-0.1 0.7,-0.1 1,-0.1l25.4,0c0.3,0 0.7,0 1,0.1c0,0 0,0 0,0c2.9,0.5 4.9,2.9 4.9,5.9c0,3.3 -2.6,5.9 -5.9,5.9zm-25.4,-7.8c-0.1,0 -0.2,0 -0.3,0c-0.9,0.2 -1.6,1 -1.6,1.9c0,1.1 0.9,1.9 1.9,1.9l25.4,0c1.1,0 1.9,-0.9 1.9,-1.9c0,-1 -0.7,-1.8 -1.6,-1.9c-0.1,0 -0.2,0 -0.3,0l-25.4,0z" class="st0"/>
  <path fill="#e8eff2" id="svg_5" d="m60.3,22.2l-9.5,0c-0.6,0 -1.1,-0.2 -1.5,-0.7c-0.4,-0.4 -0.6,-1 -0.5,-1.6c0.3,-2 0.7,-3.9 1.3,-5.6c1.5,-4.7 5.3,-8.2 10.1,-9.5c0.7,-0.2 1.5,0 2,0.6c0.5,0.6 0.6,1.4 0.3,2.1c-0.1,0.2 -0.1,0.4 -0.1,0.7l0,12c-0.1,1.1 -1,2 -2.1,2zm-7.1,-4l5.2,0l0,-8.4c-2.1,1.3 -3.7,3.3 -4.5,5.7c-0.3,0.8 -0.5,1.7 -0.7,2.7z" class="st0"/>
  <path fill="#e8eff2" id="svg_7" d="m77.2,22.2l-9.5,0c-1.1,0 -2,-0.9 -2,-2l0,-12c0,-0.2 -0.1,-0.5 -0.1,-0.7c-0.3,-0.7 -0.2,-1.5 0.3,-2.1c0.5,-0.6 1.3,-0.8 2,-0.6c4.8,1.3 8.5,4.9 10.1,9.5c0.6,1.8 1,3.7 1.3,5.7c0.1,0.6 -0.1,1.1 -0.5,1.6c-0.5,0.3 -1,0.6 -1.6,0.6zm-7.5,-4l5.2,0c-0.2,-0.9 -0.4,-1.8 -0.7,-2.7c-0.8,-2.4 -2.4,-4.4 -4.5,-5.7l0,8.4z" class="st0"/>
  <path fill="#e8eff2" id="svg_9" d="m67.7,22.2l-7.3,0c-1.1,0 -2,-0.9 -2,-2l0,-0.1c0,-1.1 0.9,-2 2,-2l7.3,0c1.1,0 2,0.9 2,2s-0.9,2.1 -2,2.1z" class="st0"/>
  <path fill="#e8eff2" id="svg_11" d="m67.7,22.2l-7.3,0c-1.1,0 -2,-0.9 -2,-2l0,-12c0,-0.8 0.2,-1.6 0.5,-2.3c0.9,-2 2.9,-3.3 5.2,-3.3c2.2,0 4.2,1.3 5.2,3.3c0.3,0.7 0.5,1.5 0.5,2.3l0,12c-0.1,1.1 -1,2 -2.1,2zm-5.4,-4l3.3,0l0,-10c0,-0.2 -0.1,-0.5 -0.1,-0.7c-0.3,-0.6 -0.9,-1 -1.5,-1c-0.7,0 -1.3,0.4 -1.5,1c-0.1,0.2 -0.1,0.4 -0.1,0.7l0,10l-0.1,0z" class="st0"/>
  <path fill="#e8eff2" id="svg_13" d="m64,47c-8.3,0 -15.1,-7 -15.1,-15.5c0,-1.3 0.2,-2.6 0.5,-3.9c0.2,-0.9 1,-1.5 1.9,-1.5l25.3,0c0.9,0 1.7,0.6 1.9,1.5c0.3,1.3 0.5,2.6 0.5,3.9c0.1,8.5 -6.7,15.5 -15,15.5zm-11,-17c-0.1,0.5 -0.1,1 -0.1,1.4c0,6.4 5,11.5 11.1,11.5c6.1,0 11.1,-5.2 11.1,-11.5c0,-0.5 0,-1 -0.1,-1.4l-22,0z" class="st0"/>
  <path fill="#e8eff2" id="svg_15" d="m113.9,125.5c-6.1,0 -11.3,-3.7 -12.1,-8.9c-0.4,-2.9 0.5,-5.9 2.8,-8.3c2.1,-2.3 5.1,-3.8 8.5,-4.3c3.3,-0.5 6.7,0.1 9.4,1.6c2.8,1.6 4.6,4.2 5.1,7.1c0.9,5.9 -4.2,11.5 -11.2,12.6c-1,0.2 -1.8,0.2 -2.5,0.2zm1.4,-17.7c-0.6,0 -1.2,0 -1.7,0.1l0,0c-2.5,0.4 -4.6,1.5 -6.1,3.1c-1.4,1.5 -2,3.3 -1.7,5c0.6,3.7 5,6.1 9.9,5.4c4.9,-0.7 8.4,-4.3 7.9,-8.1c-0.3,-1.7 -1.4,-3.2 -3.1,-4.2c-1.6,-0.9 -3.4,-1.3 -5.2,-1.3z" class="st0"/>
  <path fill="#e8eff2" id="svg_17" d="m14.1,125.5c-0.8,0 -1.5,-0.1 -2.3,-0.2c-7.1,-1.1 -12.1,-6.7 -11.2,-12.6c0.4,-2.9 2.2,-5.5 5.1,-7.1c2.7,-1.6 6,-2.1 9.4,-1.6l0,0c3.3,0.5 6.4,2 8.5,4.3c2.2,2.4 3.2,5.3 2.8,8.3c-0.9,5.2 -6.1,8.9 -12.3,8.9zm-1.4,-17.7c-1.8,0 -3.6,0.4 -5,1.3c-1.8,1 -2.9,2.5 -3.1,4.2c-0.6,3.7 3,7.3 7.9,8.1c4.9,0.7 9.3,-1.7 9.9,-5.4c0.3,-1.7 -0.4,-3.5 -1.7,-5c-1.5,-1.6 -3.7,-2.7 -6.1,-3.1c0,0 0,0 0,0c-0.7,-0.1 -1.3,-0.1 -1.9,-0.1z" class="st0"/>
  <path fill="#e8eff2" id="svg_19" d="m89.5,65.2l-51,0c-0.8,0 -1.5,-0.5 -1.8,-1.2c-0.3,-0.7 -0.2,-1.6 0.3,-2.1c0.1,-0.1 0.2,-0.2 0.2,-0.3c0.1,-0.2 0.3,-0.4 0.4,-0.5c2.6,-2.9 5.4,-5.3 8.4,-7.2c5.6,-3.7 11.7,-5.5 18,-5.5c6.3,0 12.3,1.9 18,5.5c3,1.9 5.8,4.4 8.4,7.2c0.2,0.2 0.3,0.3 0.4,0.5c0.1,0.1 0.2,0.2 0.2,0.3c0.5,0.6 0.6,1.4 0.3,2.1c-0.3,0.8 -1,1.2 -1.8,1.2zm-46.4,-4l41.7,0c-1.6,-1.5 -3.3,-2.8 -5.1,-4c-5,-3.3 -10.3,-4.9 -15.8,-4.9s-10.7,1.7 -15.7,4.9c-1.7,1.2 -3.4,2.5 -5.1,4z" class="st0"/>
  <path fill="#e8eff2" id="svg_21" d="m103,113.9l-78,0c-0.6,0 -1.2,-0.3 -1.5,-0.7c-0.4,-0.5 -0.5,-1.1 -0.4,-1.7l8.5,-44.3c0,-0.1 0,-0.2 0,-0.3l0,-0.2c0,-0.3 0.1,-0.6 0.3,-0.9c0.8,-1.3 1.7,-2.6 2.6,-3.8c0.4,-0.5 1,-0.8 1.6,-0.8l56,0c0.6,0 1.2,0.3 1.6,0.8c1,1.2 1.8,2.5 2.6,3.8c0.2,0.3 0.3,0.6 0.3,0.9l0,0.2c0,0.1 0,0.2 0,0.3l3.5,18.3l0,0l5,26.1c0.1,0.6 0,1.2 -0.4,1.7c-0.5,0.3 -1.1,0.6 -1.7,0.6zm-75.6,-4l73.2,0l-8.1,-42c0,0 0,-0.1 0,-0.1c0,-0.1 0,-0.2 0,-0.3c-0.5,-0.7 -1,-1.5 -1.5,-2.2l-54,0c-0.5,0.7 -1,1.4 -1.5,2.2c0,0.1 0,0.2 0,0.3c0,0 0,0.1 0,0.1l-8.1,42z" class="st0"/>
  <path fill="#e8eff2" id="svg_23" d="m103.7,118.3c-1,0 -1.8,-0.7 -2,-1.7l0,0c0,0 0,0 0,0l-1.6,-10.5l-7.6,-38.8c-0.3,-1.7 -0.1,-3.2 0.5,-4.8c1.5,-4.1 5.7,-7.2 10.7,-7.9c7.1,-1.1 13.5,2.9 14.4,8.7l9.1,48.8c0,0.2 0.1,0.4 0.1,0.6c0.2,1.1 -0.6,2.1 -1.6,2.3c-1.1,0.2 -2.1,-0.5 -2.3,-1.6l-0.1,-0.5c-0.4,-1.6 -1.4,-2.9 -3.1,-3.9c-1.9,-1.1 -4.3,-1.5 -6.8,-1.1c-2.5,0.4 -4.6,1.5 -6.1,3.1c-1.4,1.5 -2,3.3 -1.8,5l0,0l0,0c0.2,1.1 -0.6,2.1 -1.7,2.3c0.1,0 0,0 -0.1,0zm2.4,-59.9c-0.6,0 -1.2,0 -1.7,0.1c-3.6,0.5 -6.5,2.6 -7.6,5.4c-0.3,0.9 -0.4,1.8 -0.3,2.7l7.6,38.8l0.4,2.9c2.1,-2.3 5.1,-3.8 8.4,-4.3c3.2,-0.5 6.4,0 9,1.4l-7.7,-41.4c0,0 0,0 0,-0.1c-0.5,-3.2 -3.9,-5.5 -8.1,-5.5z" class="st0"/>
  <path fill="#e8eff2" id="svg_25" d="m24.3,118.3c-0.1,0 -0.2,0 -0.3,0c-1.1,-0.2 -1.8,-1.2 -1.7,-2.3l0,0c0.3,-1.7 -0.4,-3.5 -1.7,-5c-1.5,-1.6 -3.7,-2.7 -6.1,-3.1c-4.7,-0.7 -9,1.5 -9.8,5l-0.1,0.5c-0.2,1.1 -1.2,1.8 -2.3,1.6c-1.1,-0.2 -1.8,-1.2 -1.6,-2.3c0,-0.2 0.1,-0.4 0.1,-0.6l9.1,-48.8c0.9,-5.8 7.4,-9.7 14.4,-8.7c5,0.7 9.2,3.8 10.7,7.9c0,0 0,0 0,0c0.6,1.6 0.8,3.1 0.5,4.7l-7.7,39l-1.6,10.4c0,0 0,0 0,0c-0.1,1 -0.9,1.7 -1.9,1.7zm-11.6,-14.5c0.8,0 1.5,0.1 2.3,0.2c3.3,0.5 6.3,2 8.4,4.3l0.4,-2.8l7.7,-39c0.1,-0.8 0,-1.7 -0.3,-2.6c-1,-2.7 -4,-4.8 -7.6,-5.4c-4.9,-0.7 -9.3,1.7 -9.9,5.4l-7.7,41.5c2,-1 4.3,-1.6 6.7,-1.6z" class="st0"/>
  <path fill="#e8eff2" id="svg_27" d="m112.3,124.1c-0.9,0 -1.8,-0.2 -2.6,-0.5c-0.5,-0.2 -0.8,-0.8 -0.6,-1.3c0.2,-0.5 0.8,-0.8 1.3,-0.6c2.3,0.9 4.9,0.1 6.7,-2c1.1,-1.8 1.6,-4.5 -0.1,-6.3c-0.5,-0.5 -1.3,-0.7 -2,-0.6c-0.4,0.1 -1,0.3 -1.3,0.9c-0.1,0.3 -0.1,0.4 -0.1,0.5c0,0 0,0 0.1,0c0.6,-0.1 1,0.3 1.1,0.9c0.1,0.5 -0.3,1 -0.9,1.1c-0.8,0.1 -1.6,-0.2 -2,-0.9c-0.5,-0.7 -0.5,-1.7 0,-2.6c0.6,-1 1.6,-1.7 2.8,-1.9c1.3,-0.2 2.7,0.3 3.7,1.2c2.5,2.6 1.9,6.4 0.4,8.8c0,0 -0.1,0.1 -0.1,0.1c-1.7,2.1 -4,3.2 -6.4,3.2z" class="st0"/>
  <path fill="#e8eff2" id="svg_29" d="m15.7,124.3c-2.3,0 -4.7,-1.1 -6.4,-3.1c0,0 -0.1,-0.1 -0.1,-0.1c-1.6,-2.5 -2.1,-6.2 0.3,-8.8c1,-0.9 2.4,-1.4 3.7,-1.2c1.2,0.2 2.2,0.8 2.8,1.8c0.5,0.9 0.5,1.9 0,2.6c-0.4,0.6 -1.2,1 -2,0.9c-0.5,-0.1 -0.9,-0.6 -0.9,-1.1c0.1,-0.5 0.6,-0.9 1.1,-0.9c0.1,0 0.1,0 0.1,0c0,0 0.1,-0.2 -0.1,-0.5c-0.3,-0.6 -0.9,-0.8 -1.3,-0.8c-0.7,-0.1 -1.5,0.1 -2,0.6c-1.6,1.7 -1.2,4.4 -0.1,6.2c1.8,2.1 4.4,2.9 6.7,2c0.5,-0.2 1.1,0.1 1.3,0.6c0.2,0.5 -0.1,1.1 -0.6,1.3c-0.7,0.3 -1.6,0.5 -2.5,0.5z" class="st0"/>
  <path fill="#e8eff2" id="svg_31" d="m89.5,98c-0.5,0 -0.9,-0.3 -1,-0.8l-5.5,-26.1l-12.7,0c-0.6,0 -1,-0.4 -1,-1c0,-0.6 0.4,-1 1,-1l13.6,0c0.5,0 0.9,0.3 1,0.8l5.6,26.9c0.1,0.5 -0.2,1.1 -0.8,1.2c0,0 -0.1,0 -0.2,0z" class="st0"/>
  <path fill="#e8eff2" id="svg_33" d="m86.6,105.1l-50.2,0c-0.3,0 -0.6,-0.1 -0.8,-0.4c-0.2,-0.2 -0.3,-0.5 -0.2,-0.8l7,-33.1c0.1,-0.5 0.6,-0.9 1.2,-0.8c0.5,0.1 0.9,0.6 0.8,1.2l-6.7,31.8l48.9,0c0.6,0 1,0.4 1,1c0,0.7 -0.5,1.1 -1,1.1z" class="st0"/>
  <path fill="#e8eff2" id="svg_35" d="m79.9,85.5l-15.9,0c-0.6,0 -1,-0.4 -1,-1c0,-0.6 0.4,-1 1,-1l15.9,0c0.6,0 1,0.4 1,1c0,0.6 -0.4,1 -1,1z" class="st0"/>
  <path fill="#e8eff2" id="svg_37" d="m50,96.5c-0.1,0 -0.2,0 -0.3,0c-0.5,-0.2 -0.8,-0.7 -0.7,-1.2l3.2,-11c0.2,-0.5 0.7,-0.8 1.2,-0.7c0.5,0.2 0.8,0.7 0.7,1.2l-3.2,11c-0.1,0.4 -0.5,0.7 -0.9,0.7z" class="st0"/>
 </g>
</svg>