<svg xmlns="http://www.w3.org/2000/svg" xmlns:xlink="http://www.w3.org/1999/xlink" version="1.1" x="0px" y="0px" viewBox="0 0 64 64" enable-background="new 0 0 64 64" xml:space="preserve"><g><g><g><g><g><path fill="#e8eff2" d="M38.102,24.588c0,0,0.034-0.348,0.043-0.537c0.029-0.604,0.074-1.207,0.111-1.811       c0.027-0.435,0.105-0.874,0.065-1.302c-0.081-0.859-0.52-1.563-1.116-2.169c-0.325-0.331-0.702-0.582-1.175-0.66       c-0.069-0.011-0.141-0.063-0.192-0.115c-0.506-0.508-1.105-0.865-1.776-1.104c-0.72-0.257-1.453-0.382-2.196-0.398       c-0.401-0.008-0.805,0.015-1.212,0.067c-1.169,0.149-2.259,0.514-3.22,1.209c-1.045,0.756-1.715,1.758-1.771,3.067       c-0.035,0.819,0.054,1.643,0.098,2.465c0.025,0.469,0.071,0.938,0.107,1.408c-0.043,0.013-0.07,0.028-0.096,0.028       c-0.52-0.006-0.763,0.418-0.795,0.818c-0.021,0.265-0.027,0.535,0.002,0.798c0.084,0.759,0.324,1.467,0.795,2.079       c0.257,0.335,0.46,0.391,0.838,0.251c0.004-0.002,0.561,1.469,0.619,1.602c0.513,1.184,1.515,2.478,2.77,2.917       c1.439,0.503,3.249,0.482,4.565-0.349c1.217-0.769,1.842-1.973,2.368-3.252c0,0,0.254-0.457,0.366-0.697       c0.046-0.098,0.048-0.193,0.155-0.211c0.083-0.014,0.205,0.057,0.3,0.05c0.21-0.015,0.359-0.163,0.481-0.322       c0.47-0.613,0.71-1.32,0.795-2.079c0.029-0.263,0.023-0.533,0.002-0.798c-0.033-0.4-0.275-0.824-0.795-0.818       c-0.026,0-0.053-0.015-0.096-0.028 M37.014,27.669c-0.322,1.109-0.832,2.152-1.415,3.144c-1.029,1.753-3.135,2.446-5.051,1.802       c-2.05-0.69-2.937-2.975-3.548-4.856c-0.333-1.024-0.449-2.081-0.449-3.155v-0.003c-0.005-0.182-0.014-0.39-0.029-0.507       c-0.002-0.03-0.004-0.061-0.005-0.092c1.442,0.033,2.881-0.006,4.307-0.251c0.406-0.07,0.808-0.149,1.202-0.247       c1.185-0.294,2.305-0.753,3.28-1.604c0.505,0.695,1.193,1.097,1.949,1.4c0.088,0.035,0.178,0.079,0.269,0.103       c-0.077,1.366-0.103,2.73-0.455,4.06C37.052,27.533,37.033,27.601,37.014,27.669z"></path></g></g></g><g><path fill="#e8eff2" d="M47.359,50.102c-0.083-2.288-0.292-4.605-0.562-6.919c-0.047-0.674-0.117-1.343-0.24-2.007     c-0.089-0.479-0.203-0.955-0.357-1.424c-0.146-0.448-0.307-0.924-0.596-1.278c-0.305-0.37-0.732-0.758-1.174-0.88     c-1.07-0.289-2.14-0.568-3.215-0.838c-1.63-0.414-3.259-0.815-4.889-1.224c-0.094-0.021-0.198-0.013-0.362-0.026     c-0.021,0.075-0.039,0.148-0.06,0.221c-0.286,1.052-0.552,2.106-0.872,3.142c-0.385,1.239-0.817,2.468-1.247,3.694     c-0.047,0.138-0.112,0.268-0.18,0.398c-0.075-0.557-0.172-1.291-0.268-2.01C33.164,39.605,33,38.298,33,38.254     c0.068-0.154,0.128-0.299,0.193-0.44c0.008-0.021,0.018-0.042,0.029-0.06c0.036-0.086,0.073-0.18,0.112-0.258     c0.021-0.029,0.039-0.07,0.057-0.102c0.057-0.115,0.128-0.234,0.128-0.38c0-0.016,0-0.029-0.003-0.042     c-0.005-0.023-0.008-0.049-0.01-0.073c0-0.003-0.003-0.008-0.003-0.01c-0.018-0.073-0.047-0.143-0.07-0.203l-0.021-0.042     c-0.008-0.018-0.008-0.029-0.021-0.052c-0.008-0.029-0.029-0.068-0.047-0.102l-0.01-0.018c-0.005-0.008-0.021-0.021-0.021-0.029     c-0.023-0.042-0.052-0.07-0.078-0.091c-0.052-0.034-0.107-0.047-0.146-0.055h-0.096c-0.029-0.021-0.07-0.021-0.086-0.021     c-0.133-0.008-0.469-0.008-0.901-0.008c-0.43,0-0.773,0-0.906,0.008c-0.029,0-0.057,0-0.089,0.021h-0.086     c-0.062,0.01-0.154,0.031-0.229,0.146c-0.008,0.008-0.008,0.021-0.018,0.039l-0.01,0.008c-0.005,0.008-0.01,0.018-0.013,0.026     c-0.075,0.075-0.122,0.182-0.125,0.307c-0.016,0.055-0.031,0.12-0.031,0.19c0,0.146,0.062,0.266,0.125,0.38     c0.003,0.008,0.01,0.018,0.016,0.031c0.013,0.023,0.029,0.049,0.039,0.07c0.039,0.078,0.078,0.172,0.115,0.258     c0.008,0.01,0.016,0.029,0.021,0.044c0.068,0.151,0.133,0.299,0.198,0.456c0,0.029-0.036,0.323-0.094,0.773     c-0.133,1.023-0.37,2.825-0.518,3.934c-0.068-0.13-0.133-0.26-0.18-0.398c-0.43-1.226-0.862-2.455-1.247-3.694     c-0.32-1.039-0.588-2.096-0.872-3.147c-0.021-0.073-0.039-0.146-0.06-0.216c-0.164,0.013-0.268,0.005-0.362,0.026     c-1.458,0.367-2.918,0.726-4.373,1.093c-0.003,0-0.003,0.003-0.003,0.003c-1.244,0.31-2.489,0.63-3.728,0.966     c-0.417,0.115-0.817,0.463-1.117,0.812c-0.021,0.023-0.039,0.047-0.057,0.068c-0.289,0.354-0.45,0.83-0.596,1.278     c-0.138,0.422-0.245,0.846-0.328,1.276c-0.198,0.997-0.271,2.015-0.318,3.035c-0.003,0.073-0.005,0.143-0.01,0.216     c-0.2,1.869-0.406,3.738-0.5,5.62c-0.055,1.169,0.497,1.7,1.762,1.716c4.524,0.065,9.054,0.12,13.579,0.18h13.589     C46.839,51.794,47.404,51.268,47.359,50.102z"></path></g><g><path fill="#e8eff2" d="M22.619,8.314c0-1.418-0.065-2.763,0.019-4.098c0.079-1.26,1.213-2.153,2.6-2.178     c0.974-0.018,1.948-0.003,2.968-0.003c0.013-0.265,0.013-0.483,0.035-0.699c0.066-0.643,0.561-1.149,1.207-1.156     c1.691-0.019,3.382-0.018,5.073,0c0.678,0.007,1.122,0.455,1.21,1.139c0.028,0.218,0.039,0.438,0.063,0.715     c0.942,0,1.855-0.003,2.768,0.001c1.817,0.006,2.826,1.019,2.834,2.845c0.004,0.896-0.034,1.795,0.012,2.689     c0.03,0.577-0.134,0.762-0.734,0.758c-4.279-0.025-8.557-0.013-12.836-0.013c-1.487,0-2.975,0.001-4.462,0.001     C23.137,8.314,22.898,8.314,22.619,8.314z"></path></g><path fill="#e8eff2" d="M52.761,4.249h-8.718v2.805h8.505V61.04H11.452V7.054h8.505V4.249h-8.718    c-1.417,0-2.582,1.174-2.582,2.582v54.411c0,1.428,1.175,2.592,2.582,2.592h41.522c1.407,0,2.582-1.164,2.582-2.592V6.831    C55.343,5.424,54.178,4.249,52.761,4.249z"></path></g></g></svg>
